<mxfile host="app.diagrams.net" agent="Mozilla/5.0 (Macintosh; Intel Mac OS X 10_15_7) AppleWebKit/537.36 (KHTML, like Gecko) Chrome/130.0.0.0 Safari/537.36" version="24.8.4">
  <diagram name="Page-1" id="3M4bR4976tQd8baS298D">
    <mxGraphModel dx="3056" dy="1105" grid="1" gridSize="10" guides="1" tooltips="1" connect="1" arrows="1" fold="1" page="1" pageScale="1" pageWidth="850" pageHeight="1100" math="0" shadow="0">
      <root>
        <mxCell id="0" />
        <mxCell id="1" parent="0" />
        <mxCell id="jxjZ4RDuN04zo6CGGgM6-1" value="AWS Cloud" style="points=[[0,0],[0.25,0],[0.5,0],[0.75,0],[1,0],[1,0.25],[1,0.5],[1,0.75],[1,1],[0.75,1],[0.5,1],[0.25,1],[0,1],[0,0.75],[0,0.5],[0,0.25]];outlineConnect=0;gradientColor=none;html=1;whiteSpace=wrap;fontSize=12;fontStyle=0;container=1;pointerEvents=0;collapsible=0;recursiveResize=0;shape=mxgraph.aws4.group;grIcon=mxgraph.aws4.group_aws_cloud_alt;strokeColor=#232F3E;fillColor=none;verticalAlign=top;align=left;spacingLeft=30;fontColor=#232F3E;dashed=0;" parent="1" vertex="1">
          <mxGeometry x="-190" y="40" width="1520" height="1000" as="geometry" />
        </mxCell>
        <mxCell id="jxjZ4RDuN04zo6CGGgM6-3" value="VPC" style="points=[[0,0],[0.25,0],[0.5,0],[0.75,0],[1,0],[1,0.25],[1,0.5],[1,0.75],[1,1],[0.75,1],[0.5,1],[0.25,1],[0,1],[0,0.75],[0,0.5],[0,0.25]];outlineConnect=0;gradientColor=none;html=1;whiteSpace=wrap;fontSize=12;fontStyle=0;container=1;pointerEvents=0;collapsible=0;recursiveResize=0;shape=mxgraph.aws4.group;grIcon=mxgraph.aws4.group_vpc2;strokeColor=#8C4FFF;fillColor=none;verticalAlign=top;align=left;spacingLeft=30;fontColor=#AAB7B8;dashed=0;" parent="jxjZ4RDuN04zo6CGGgM6-1" vertex="1">
          <mxGeometry x="30" y="260" width="980" height="690" as="geometry" />
        </mxCell>
        <mxCell id="jxjZ4RDuN04zo6CGGgM6-4" value="Public subnet" style="points=[[0,0],[0.25,0],[0.5,0],[0.75,0],[1,0],[1,0.25],[1,0.5],[1,0.75],[1,1],[0.75,1],[0.5,1],[0.25,1],[0,1],[0,0.75],[0,0.5],[0,0.25]];outlineConnect=0;gradientColor=none;html=1;whiteSpace=wrap;fontSize=12;fontStyle=0;container=1;pointerEvents=0;collapsible=0;recursiveResize=0;shape=mxgraph.aws4.group;grIcon=mxgraph.aws4.group_security_group;grStroke=0;strokeColor=#7AA116;fillColor=#F2F6E8;verticalAlign=top;align=left;spacingLeft=30;fontColor=#248814;dashed=0;" parent="jxjZ4RDuN04zo6CGGgM6-3" vertex="1">
          <mxGeometry x="60" y="70" width="230" height="560" as="geometry" />
        </mxCell>
        <mxCell id="jxjZ4RDuN04zo6CGGgM6-7" value="" style="sketch=0;points=[[0,0,0],[0.25,0,0],[0.5,0,0],[0.75,0,0],[1,0,0],[0,1,0],[0.25,1,0],[0.5,1,0],[0.75,1,0],[1,1,0],[0,0.25,0],[0,0.5,0],[0,0.75,0],[1,0.25,0],[1,0.5,0],[1,0.75,0]];outlineConnect=0;fontColor=#232F3E;fillColor=#8C4FFF;strokeColor=#ffffff;dashed=0;verticalLabelPosition=bottom;verticalAlign=top;align=center;html=1;fontSize=12;fontStyle=0;aspect=fixed;shape=mxgraph.aws4.resourceIcon;resIcon=mxgraph.aws4.elastic_load_balancing;" parent="jxjZ4RDuN04zo6CGGgM6-4" vertex="1">
          <mxGeometry x="80" y="50" width="78" height="78" as="geometry" />
        </mxCell>
        <mxCell id="jxjZ4RDuN04zo6CGGgM6-13" value="Elastic Load&lt;div&gt;Balancing&lt;/div&gt;" style="text;html=1;align=center;verticalAlign=middle;resizable=0;points=[];autosize=1;strokeColor=none;fillColor=none;fontSize=16;" parent="jxjZ4RDuN04zo6CGGgM6-4" vertex="1">
          <mxGeometry x="64" y="140" width="110" height="50" as="geometry" />
        </mxCell>
        <mxCell id="jxjZ4RDuN04zo6CGGgM6-37" value="" style="sketch=0;outlineConnect=0;fontColor=#232F3E;gradientColor=none;fillColor=#8C4FFF;strokeColor=none;dashed=0;verticalLabelPosition=bottom;verticalAlign=top;align=center;html=1;fontSize=12;fontStyle=0;aspect=fixed;pointerEvents=1;shape=mxgraph.aws4.nat_gateway;" parent="jxjZ4RDuN04zo6CGGgM6-4" vertex="1">
          <mxGeometry x="80" y="260" width="78" height="78" as="geometry" />
        </mxCell>
        <mxCell id="jxjZ4RDuN04zo6CGGgM6-38" value="NAT Gateway" style="text;html=1;align=center;verticalAlign=middle;resizable=0;points=[];autosize=1;strokeColor=none;fillColor=none;fontSize=16;" parent="jxjZ4RDuN04zo6CGGgM6-4" vertex="1">
          <mxGeometry x="65" y="360" width="120" height="30" as="geometry" />
        </mxCell>
        <mxCell id="jxjZ4RDuN04zo6CGGgM6-5" value="Private subnet" style="points=[[0,0],[0.25,0],[0.5,0],[0.75,0],[1,0],[1,0.25],[1,0.5],[1,0.75],[1,1],[0.75,1],[0.5,1],[0.25,1],[0,1],[0,0.75],[0,0.5],[0,0.25]];outlineConnect=0;gradientColor=none;html=1;whiteSpace=wrap;fontSize=12;fontStyle=0;container=1;pointerEvents=0;collapsible=0;recursiveResize=0;shape=mxgraph.aws4.group;grIcon=mxgraph.aws4.group_security_group;grStroke=0;strokeColor=#00A4A6;fillColor=#E6F6F7;verticalAlign=top;align=left;spacingLeft=30;fontColor=#147EBA;dashed=0;" parent="jxjZ4RDuN04zo6CGGgM6-3" vertex="1">
          <mxGeometry x="730" y="70" width="230" height="560" as="geometry" />
        </mxCell>
        <mxCell id="jxjZ4RDuN04zo6CGGgM6-19" value="" style="sketch=0;points=[[0,0,0],[0.25,0,0],[0.5,0,0],[0.75,0,0],[1,0,0],[0,1,0],[0.25,1,0],[0.5,1,0],[0.75,1,0],[1,1,0],[0,0.25,0],[0,0.5,0],[0,0.75,0],[1,0.25,0],[1,0.5,0],[1,0.75,0]];outlineConnect=0;fontColor=#232F3E;fillColor=#C925D1;strokeColor=#ffffff;dashed=0;verticalLabelPosition=bottom;verticalAlign=top;align=center;html=1;fontSize=12;fontStyle=0;aspect=fixed;shape=mxgraph.aws4.resourceIcon;resIcon=mxgraph.aws4.rds;" parent="jxjZ4RDuN04zo6CGGgM6-5" vertex="1">
          <mxGeometry x="76" y="50" width="78" height="78" as="geometry" />
        </mxCell>
        <mxCell id="jxjZ4RDuN04zo6CGGgM6-20" value="Amazon RDS" style="text;html=1;align=center;verticalAlign=middle;resizable=0;points=[];autosize=1;strokeColor=none;fillColor=none;fontSize=16;" parent="jxjZ4RDuN04zo6CGGgM6-5" vertex="1">
          <mxGeometry x="55" y="140" width="120" height="30" as="geometry" />
        </mxCell>
        <mxCell id="jxjZ4RDuN04zo6CGGgM6-16" value="Protected subnet" style="points=[[0,0],[0.25,0],[0.5,0],[0.75,0],[1,0],[1,0.25],[1,0.5],[1,0.75],[1,1],[0.75,1],[0.5,1],[0.25,1],[0,1],[0,0.75],[0,0.5],[0,0.25]];outlineConnect=0;gradientColor=none;html=1;whiteSpace=wrap;fontSize=12;fontStyle=0;container=1;pointerEvents=0;collapsible=0;recursiveResize=0;shape=mxgraph.aws4.group;grIcon=mxgraph.aws4.group_security_group;grStroke=0;strokeColor=#333333;fillColor=#F2F6E8;verticalAlign=top;align=left;spacingLeft=30;fontColor=#333333;dashed=0;" parent="jxjZ4RDuN04zo6CGGgM6-3" vertex="1">
          <mxGeometry x="340" y="70" width="350" height="560" as="geometry" />
        </mxCell>
        <mxCell id="jxjZ4RDuN04zo6CGGgM6-17" value="" style="sketch=0;points=[[0,0,0],[0.25,0,0],[0.5,0,0],[0.75,0,0],[1,0,0],[0,1,0],[0.25,1,0],[0.5,1,0],[0.75,1,0],[1,1,0],[0,0.25,0],[0,0.5,0],[0,0.75,0],[1,0.25,0],[1,0.5,0],[1,0.75,0]];outlineConnect=0;fontColor=#232F3E;fillColor=#ED7100;strokeColor=#ffffff;dashed=0;verticalLabelPosition=bottom;verticalAlign=top;align=center;html=1;fontSize=12;fontStyle=0;aspect=fixed;shape=mxgraph.aws4.resourceIcon;resIcon=mxgraph.aws4.ec2;" parent="jxjZ4RDuN04zo6CGGgM6-16" vertex="1">
          <mxGeometry x="130" y="50" width="78" height="78" as="geometry" />
        </mxCell>
        <mxCell id="jxjZ4RDuN04zo6CGGgM6-18" value="Amazon EC2" style="text;html=1;align=center;verticalAlign=middle;resizable=0;points=[];autosize=1;strokeColor=none;fillColor=none;fontSize=16;" parent="jxjZ4RDuN04zo6CGGgM6-16" vertex="1">
          <mxGeometry x="109" y="140" width="120" height="30" as="geometry" />
        </mxCell>
        <mxCell id="jxjZ4RDuN04zo6CGGgM6-6" value="" style="sketch=0;points=[[0,0,0],[0.25,0,0],[0.5,0,0],[0.75,0,0],[1,0,0],[0,1,0],[0.25,1,0],[0.5,1,0],[0.75,1,0],[1,1,0],[0,0.25,0],[0,0.5,0],[0,0.75,0],[1,0.25,0],[1,0.5,0],[1,0.75,0]];outlineConnect=0;fontColor=#232F3E;fillColor=#8C4FFF;strokeColor=#ffffff;dashed=0;verticalLabelPosition=bottom;verticalAlign=top;align=center;html=1;fontSize=12;fontStyle=0;aspect=fixed;shape=mxgraph.aws4.resourceIcon;resIcon=mxgraph.aws4.route_53;" parent="jxjZ4RDuN04zo6CGGgM6-1" vertex="1">
          <mxGeometry x="926" y="22" width="78" height="78" as="geometry" />
        </mxCell>
        <mxCell id="jxjZ4RDuN04zo6CGGgM6-8" value="" style="sketch=0;outlineConnect=0;fontColor=#232F3E;gradientColor=none;fillColor=#8C4FFF;strokeColor=none;dashed=0;verticalLabelPosition=bottom;verticalAlign=top;align=center;html=1;fontSize=12;fontStyle=0;aspect=fixed;pointerEvents=1;shape=mxgraph.aws4.internet_gateway;" parent="jxjZ4RDuN04zo6CGGgM6-1" vertex="1">
          <mxGeometry x="146" y="130" width="78" height="78" as="geometry" />
        </mxCell>
        <mxCell id="jxjZ4RDuN04zo6CGGgM6-14" value="Internet Gateawy" style="text;html=1;align=center;verticalAlign=middle;resizable=0;points=[];autosize=1;strokeColor=none;fillColor=none;fontSize=16;" parent="jxjZ4RDuN04zo6CGGgM6-1" vertex="1">
          <mxGeometry x="110" y="208" width="150" height="30" as="geometry" />
        </mxCell>
        <mxCell id="jxjZ4RDuN04zo6CGGgM6-15" value="Route 53" style="text;html=1;align=center;verticalAlign=middle;resizable=0;points=[];autosize=1;strokeColor=none;fillColor=none;fontSize=16;" parent="jxjZ4RDuN04zo6CGGgM6-1" vertex="1">
          <mxGeometry x="920" y="102" width="90" height="30" as="geometry" />
        </mxCell>
        <mxCell id="jxjZ4RDuN04zo6CGGgM6-21" value="" style="sketch=0;points=[[0,0,0],[0.25,0,0],[0.5,0,0],[0.75,0,0],[1,0,0],[0,1,0],[0.25,1,0],[0.5,1,0],[0.75,1,0],[1,1,0],[0,0.25,0],[0,0.5,0],[0,0.75,0],[1,0.25,0],[1,0.5,0],[1,0.75,0]];outlineConnect=0;fontColor=#232F3E;fillColor=#DD344C;strokeColor=#ffffff;dashed=0;verticalLabelPosition=bottom;verticalAlign=top;align=center;html=1;fontSize=12;fontStyle=0;aspect=fixed;shape=mxgraph.aws4.resourceIcon;resIcon=mxgraph.aws4.waf;" parent="jxjZ4RDuN04zo6CGGgM6-1" vertex="1">
          <mxGeometry x="640" y="22" width="78" height="78" as="geometry" />
        </mxCell>
        <mxCell id="jxjZ4RDuN04zo6CGGgM6-22" value="" style="sketch=0;points=[[0,0,0],[0.25,0,0],[0.5,0,0],[0.75,0,0],[1,0,0],[0,1,0],[0.25,1,0],[0.5,1,0],[0.75,1,0],[1,1,0],[0,0.25,0],[0,0.5,0],[0,0.75,0],[1,0.25,0],[1,0.5,0],[1,0.75,0]];outlineConnect=0;fontColor=#232F3E;fillColor=#DD344C;strokeColor=#ffffff;dashed=0;verticalLabelPosition=bottom;verticalAlign=top;align=center;html=1;fontSize=12;fontStyle=0;aspect=fixed;shape=mxgraph.aws4.resourceIcon;resIcon=mxgraph.aws4.certificate_manager_3;" parent="jxjZ4RDuN04zo6CGGgM6-1" vertex="1">
          <mxGeometry x="1100" y="22" width="78" height="78" as="geometry" />
        </mxCell>
        <mxCell id="jxjZ4RDuN04zo6CGGgM6-23" value="" style="sketch=0;points=[[0,0,0],[0.25,0,0],[0.5,0,0],[0.75,0,0],[1,0,0],[0,1,0],[0.25,1,0],[0.5,1,0],[0.75,1,0],[1,1,0],[0,0.25,0],[0,0.5,0],[0,0.75,0],[1,0.25,0],[1,0.5,0],[1,0.75,0]];outlineConnect=0;fontColor=#232F3E;fillColor=#8C4FFF;strokeColor=#ffffff;dashed=0;verticalLabelPosition=bottom;verticalAlign=top;align=center;html=1;fontSize=12;fontStyle=0;aspect=fixed;shape=mxgraph.aws4.resourceIcon;resIcon=mxgraph.aws4.cloudfront;" parent="jxjZ4RDuN04zo6CGGgM6-1" vertex="1">
          <mxGeometry x="450" y="22" width="78" height="78" as="geometry" />
        </mxCell>
        <mxCell id="jxjZ4RDuN04zo6CGGgM6-24" value="Amazon&amp;nbsp;&lt;div&gt;CloudFront&lt;/div&gt;" style="text;html=1;align=center;verticalAlign=middle;resizable=0;points=[];autosize=1;strokeColor=none;fillColor=none;fontSize=16;" parent="jxjZ4RDuN04zo6CGGgM6-1" vertex="1">
          <mxGeometry x="439" y="100" width="100" height="50" as="geometry" />
        </mxCell>
        <mxCell id="jxjZ4RDuN04zo6CGGgM6-25" value="AWS WAF" style="text;html=1;align=center;verticalAlign=middle;resizable=0;points=[];autosize=1;strokeColor=none;fillColor=none;fontSize=16;" parent="jxjZ4RDuN04zo6CGGgM6-1" vertex="1">
          <mxGeometry x="629" y="110" width="100" height="30" as="geometry" />
        </mxCell>
        <mxCell id="jxjZ4RDuN04zo6CGGgM6-26" value="AWS&lt;div&gt;Certificate Manager&lt;/div&gt;" style="text;html=1;align=center;verticalAlign=middle;resizable=0;points=[];autosize=1;strokeColor=none;fillColor=none;fontSize=16;" parent="jxjZ4RDuN04zo6CGGgM6-1" vertex="1">
          <mxGeometry x="1059" y="100" width="160" height="50" as="geometry" />
        </mxCell>
        <mxCell id="jxjZ4RDuN04zo6CGGgM6-27" value="" style="sketch=0;points=[[0,0,0],[0.25,0,0],[0.5,0,0],[0.75,0,0],[1,0,0],[0,1,0],[0.25,1,0],[0.5,1,0],[0.75,1,0],[1,1,0],[0,0.25,0],[0,0.5,0],[0,0.75,0],[1,0.25,0],[1,0.5,0],[1,0.75,0]];outlineConnect=0;fontColor=#232F3E;fillColor=#7AA116;strokeColor=#ffffff;dashed=0;verticalLabelPosition=bottom;verticalAlign=top;align=center;html=1;fontSize=12;fontStyle=0;aspect=fixed;shape=mxgraph.aws4.resourceIcon;resIcon=mxgraph.aws4.s3;" parent="jxjZ4RDuN04zo6CGGgM6-1" vertex="1">
          <mxGeometry x="1360" y="22" width="78" height="78" as="geometry" />
        </mxCell>
        <mxCell id="jxjZ4RDuN04zo6CGGgM6-28" value="Amazon&lt;div&gt;Simple Storage Service&lt;/div&gt;" style="text;html=1;align=center;verticalAlign=middle;resizable=0;points=[];autosize=1;strokeColor=none;fillColor=none;fontSize=16;" parent="jxjZ4RDuN04zo6CGGgM6-1" vertex="1">
          <mxGeometry x="1304" y="100" width="190" height="50" as="geometry" />
        </mxCell>
        <mxCell id="jxjZ4RDuN04zo6CGGgM6-29" value="" style="sketch=0;points=[[0,0,0],[0.25,0,0],[0.5,0,0],[0.75,0,0],[1,0,0],[0,1,0],[0.25,1,0],[0.5,1,0],[0.75,1,0],[1,1,0],[0,0.25,0],[0,0.5,0],[0,0.75,0],[1,0.25,0],[1,0.5,0],[1,0.75,0]];points=[[0,0,0],[0.25,0,0],[0.5,0,0],[0.75,0,0],[1,0,0],[0,1,0],[0.25,1,0],[0.5,1,0],[0.75,1,0],[1,1,0],[0,0.25,0],[0,0.5,0],[0,0.75,0],[1,0.25,0],[1,0.5,0],[1,0.75,0]];outlineConnect=0;fontColor=#232F3E;fillColor=#E7157B;strokeColor=#ffffff;dashed=0;verticalLabelPosition=bottom;verticalAlign=top;align=center;html=1;fontSize=12;fontStyle=0;aspect=fixed;shape=mxgraph.aws4.resourceIcon;resIcon=mxgraph.aws4.cloudwatch_2;" parent="jxjZ4RDuN04zo6CGGgM6-1" vertex="1">
          <mxGeometry x="1110" y="380" width="78" height="78" as="geometry" />
        </mxCell>
        <mxCell id="jxjZ4RDuN04zo6CGGgM6-30" value="Amazon&lt;div&gt;CloudWatch&lt;/div&gt;" style="text;html=1;align=center;verticalAlign=middle;resizable=0;points=[];autosize=1;strokeColor=none;fillColor=none;fontSize=16;" parent="jxjZ4RDuN04zo6CGGgM6-1" vertex="1">
          <mxGeometry x="1094" y="458" width="110" height="50" as="geometry" />
        </mxCell>
        <mxCell id="jxjZ4RDuN04zo6CGGgM6-31" value="" style="sketch=0;outlineConnect=0;fontColor=#232F3E;gradientColor=none;fillColor=#E7157B;strokeColor=none;dashed=0;verticalLabelPosition=bottom;verticalAlign=top;align=center;html=1;fontSize=12;fontStyle=0;aspect=fixed;pointerEvents=1;shape=mxgraph.aws4.alarm;" parent="jxjZ4RDuN04zo6CGGgM6-1" vertex="1">
          <mxGeometry x="1110" y="630" width="78" height="78" as="geometry" />
        </mxCell>
        <mxCell id="jxjZ4RDuN04zo6CGGgM6-32" value="" style="sketch=0;outlineConnect=0;fontColor=#232F3E;gradientColor=none;fillColor=#E7157B;strokeColor=none;dashed=0;verticalLabelPosition=bottom;verticalAlign=top;align=center;html=1;fontSize=12;fontStyle=0;aspect=fixed;pointerEvents=1;shape=mxgraph.aws4.cloudwatch_metrics_insights;" parent="jxjZ4RDuN04zo6CGGgM6-1" vertex="1">
          <mxGeometry x="1310" y="390" width="77" height="78" as="geometry" />
        </mxCell>
        <mxCell id="jxjZ4RDuN04zo6CGGgM6-33" value="" style="sketch=0;points=[[0,0,0],[0.25,0,0],[0.5,0,0],[0.75,0,0],[1,0,0],[0,1,0],[0.25,1,0],[0.5,1,0],[0.75,1,0],[1,1,0],[0,0.25,0],[0,0.5,0],[0,0.75,0],[1,0.25,0],[1,0.5,0],[1,0.75,0]];outlineConnect=0;fontColor=#232F3E;fillColor=#E7157B;strokeColor=#ffffff;dashed=0;verticalLabelPosition=bottom;verticalAlign=top;align=center;html=1;fontSize=12;fontStyle=0;aspect=fixed;shape=mxgraph.aws4.resourceIcon;resIcon=mxgraph.aws4.sns;" parent="jxjZ4RDuN04zo6CGGgM6-1" vertex="1">
          <mxGeometry x="1320" y="630" width="78" height="78" as="geometry" />
        </mxCell>
        <mxCell id="jxjZ4RDuN04zo6CGGgM6-34" value="Amazon&lt;div&gt;CloudWatch Metrics&lt;/div&gt;" style="text;html=1;align=center;verticalAlign=middle;resizable=0;points=[];autosize=1;strokeColor=none;fillColor=none;fontSize=16;" parent="jxjZ4RDuN04zo6CGGgM6-1" vertex="1">
          <mxGeometry x="1263.5" y="475" width="170" height="50" as="geometry" />
        </mxCell>
        <mxCell id="jxjZ4RDuN04zo6CGGgM6-35" value="Amazon&lt;div&gt;CloudWatch Alarms&lt;/div&gt;" style="text;html=1;align=center;verticalAlign=middle;resizable=0;points=[];autosize=1;strokeColor=none;fillColor=none;fontSize=16;" parent="jxjZ4RDuN04zo6CGGgM6-1" vertex="1">
          <mxGeometry x="1069" y="708" width="160" height="50" as="geometry" />
        </mxCell>
        <mxCell id="jxjZ4RDuN04zo6CGGgM6-36" value="Simple Notification&lt;div&gt;Service&lt;/div&gt;" style="text;html=1;align=center;verticalAlign=middle;resizable=0;points=[];autosize=1;strokeColor=none;fillColor=none;fontSize=16;" parent="jxjZ4RDuN04zo6CGGgM6-1" vertex="1">
          <mxGeometry x="1278" y="708" width="160" height="50" as="geometry" />
        </mxCell>
      </root>
    </mxGraphModel>
  </diagram>
</mxfile>
